<svg width="47" height="32" viewBox="0 0 47 32" fill="none" xmlns="http://www.w3.org/2000/svg">
<path d="M42.1129 15.4714L43.6246 13.4262C44.2069 12.6544 44.4965 11.696 44.4406 10.7256C44.3045 8.60818 42.596 6.94934 40.5509 6.94934C38.5058 6.94934 36.7976 8.60818 36.6612 10.7251C36.6316 11.2058 36.6905 11.6878 36.8349 12.1466L27.381 12.3226L28.8401 10.3476C29.7713 9.11485 30.2348 7.58333 30.1461 6.0325C30.0457 4.44611 29.3814 2.95066 28.2765 1.82407C27.7073 1.2458 27.0314 0.787061 26.2874 0.474078C25.5434 0.161095 24.746 0 23.9406 0C23.1353 0 22.3378 0.161095 21.5939 0.474078C20.8499 0.787061 20.174 1.2458 19.6047 1.82407C18.5001 2.95039 17.8357 4.44548 17.7352 6.03153C17.6378 7.5104 18.1 9.04085 19.0407 10.3466L20.3029 12.0542L6.86847 12.144C6.74957 12.1448 6.63385 12.1831 6.53735 12.2537C6.44085 12.3242 6.36835 12.4234 6.32988 12.5376L0.0308205 31.23C0.00132091 31.3176 -0.00716555 31.411 0.00606599 31.5026C0.0192975 31.5942 0.0538652 31.6813 0.106898 31.7566C0.15993 31.8319 0.229897 31.8932 0.310986 31.9356C0.392076 31.9779 0.481948 32 0.573137 32H46.4269C46.5168 32 46.6054 31.9785 46.6857 31.9373C46.7659 31.8961 46.8354 31.8363 46.8887 31.7627C46.9419 31.6892 46.9774 31.604 46.9922 31.5139C47.007 31.4239 47.0007 31.3316 46.9739 31.2445L42.1129 15.4714ZM37.8046 10.8014C37.8895 9.47993 38.9397 8.11296 40.5504 8.11296C42.1611 8.11296 43.2113 9.48022 43.2963 10.803C43.3339 11.4953 43.125 12.1783 42.7077 12.7272L40.5504 15.646L38.3973 12.733C37.9831 12.1794 37.7735 11.4958 37.805 10.8014H37.8046ZM37.3899 13.2996C37.4185 13.3419 37.4472 13.384 37.4768 13.4257L40.0925 16.965C40.1459 17.0373 40.2151 17.0959 40.2947 17.1363C40.3743 17.1767 40.462 17.1978 40.551 17.1978C40.64 17.1978 40.7277 17.1767 40.8073 17.1363C40.8869 17.0959 40.9562 17.0373 41.0095 16.965L41.2655 16.6188L41.9171 18.7334L33.03 18.7355L32.3861 13.3934L37.3899 13.2996ZM19.9623 9.65447C19.1845 8.57492 18.7999 7.31588 18.8795 6.10862C18.9618 4.8035 19.5081 3.57309 20.4168 2.64607C20.8796 2.1762 21.429 1.80348 22.0337 1.54918C22.6384 1.29488 23.2865 1.164 23.941 1.164C24.5955 1.164 25.2437 1.29488 25.8484 1.54918C26.453 1.80348 27.0025 2.1762 27.4652 2.64607C28.3745 3.57349 28.921 4.80452 29.0032 6.11027C29.0733 7.383 28.6902 8.63888 27.9239 9.64875L23.9411 15.0374L19.9623 9.65447ZM1.375 30.8364L4.35263 22.0001L7.74275 21.9896L10.848 26.1909C10.9014 26.2632 10.9706 26.3218 11.0502 26.3622C11.1298 26.4026 11.2176 26.4236 11.3065 26.4236C11.3955 26.4236 11.4833 26.4026 11.5629 26.3622C11.6425 26.3218 11.7117 26.2632 11.7651 26.1909L14.2393 22.843L14.2697 30.8364H1.375ZM14.045 21.1673L11.3064 24.8722L8.57213 21.173C8.03459 20.4263 7.76854 19.5585 7.82338 18.7275C7.93094 17.0529 9.26328 15.3207 11.3064 15.3207C13.3496 15.3207 14.6819 17.0529 14.7897 18.7292C14.8376 19.6062 14.5733 20.4715 14.045 21.1673ZM23.0786 24.7371C23.0245 24.7912 22.9815 24.8557 22.9522 24.9269C22.9229 24.9981 22.9078 25.0745 22.9078 25.1516L22.9109 30.8364H15.4161L15.3801 21.1988C15.7959 20.4191 15.9878 19.5367 15.9341 18.6518C15.7722 16.1315 13.7398 14.1571 11.3071 14.1571C8.87448 14.1571 6.84211 16.1315 6.68019 18.6508C6.63663 19.3974 6.76896 20.1438 7.06622 20.8281L4.74583 20.8352L7.28335 13.3049L21.1597 13.2125L23.4832 16.3561C23.5366 16.4283 23.6058 16.487 23.6854 16.5274C23.765 16.5678 23.8527 16.5888 23.9417 16.5888C24.0307 16.5888 24.1185 16.5678 24.1981 16.5274C24.2776 16.487 24.3469 16.4283 24.4003 16.3561L26.5092 13.5022L31.2339 13.4142L31.9538 19.3875C31.9708 19.5285 32.0381 19.6583 32.1429 19.7525C32.2477 19.8467 32.3828 19.8986 32.5228 19.8986L42.2757 19.8964L43.7139 24.5632L32.0704 24.5833C32.1722 24.1834 32.2105 23.7695 32.1837 23.3574C32.0476 21.2398 30.339 19.581 28.2939 19.581C26.2488 19.581 24.5402 21.2398 24.4042 23.3564C24.3783 23.7699 24.4184 24.1849 24.523 24.5853L23.4896 24.5697C23.4135 24.5676 23.3377 24.5814 23.267 24.6102C23.1963 24.6389 23.1322 24.6821 23.0786 24.7371ZM30.451 25.3589L28.2938 28.2777L26.1408 25.3648C25.7264 24.8113 25.5166 24.1278 25.5479 23.4333C25.6329 22.1117 26.6832 20.7449 28.2938 20.7449C29.9044 20.7449 30.9548 22.1121 31.0398 23.435C31.0772 24.1272 30.8682 24.8101 30.451 25.359V25.3589ZM24.0572 30.8364L24.0545 25.7419L25.0205 25.7565C25.0826 25.8586 25.149 25.9588 25.2196 26.0571L27.8353 29.5964C27.8887 29.6687 27.9579 29.7273 28.0375 29.7677C28.1171 29.8081 28.2048 29.8292 28.2938 29.8292C28.3828 29.8292 28.4706 29.8081 28.5502 29.7677C28.6297 29.7273 28.699 29.6687 28.7524 29.5964L31.3676 26.0582C31.4424 25.9573 31.5122 25.8539 31.5771 25.7479L44.0723 25.7263L45.647 30.8364H24.0572Z" fill="#332208"/>
</svg>
